<mxfile host="app.diagrams.net" modified="2020-03-15T18:00:35.411Z" agent="Mozilla/5.0 (Windows NT 10.0; Win64; x64) AppleWebKit/537.36 (KHTML, like Gecko) Chrome/80.0.3987.132 Safari/537.36" etag="pRSMs0FH7TB3ISfULkTW" version="12.8.5" type="github">
  <diagram id="lj1SBQl5ouQlzSMjj6Mi" name="Page-1">
    <mxGraphModel dx="1003" dy="570" grid="1" gridSize="10" guides="1" tooltips="1" connect="1" arrows="1" fold="1" page="1" pageScale="1" pageWidth="827" pageHeight="1169" math="0" shadow="0">
      <root>
        <mxCell id="0" />
        <mxCell id="1" parent="0" />
        <mxCell id="6l5HC6_5bmackoMxipXx-27" style="edgeStyle=orthogonalEdgeStyle;curved=1;rounded=0;orthogonalLoop=1;jettySize=auto;html=1;" parent="1" target="6l5HC6_5bmackoMxipXx-9" edge="1">
          <mxGeometry relative="1" as="geometry">
            <mxPoint x="120" y="442" as="sourcePoint" />
          </mxGeometry>
        </mxCell>
        <mxCell id="KfMiRzdgIznkX_YZ_lzL-8" style="edgeStyle=orthogonalEdgeStyle;curved=1;rounded=0;orthogonalLoop=1;jettySize=auto;html=1;entryX=0;entryY=0.5;entryDx=0;entryDy=0;" edge="1" parent="1" source="6l5HC6_5bmackoMxipXx-1" target="KfMiRzdgIznkX_YZ_lzL-1">
          <mxGeometry relative="1" as="geometry" />
        </mxCell>
        <mxCell id="6l5HC6_5bmackoMxipXx-1" value="Ministerio" style="shape=umlActor;verticalLabelPosition=bottom;labelBackgroundColor=#ffffff;verticalAlign=top;html=1;" parent="1" vertex="1">
          <mxGeometry x="219" y="100" width="30" height="60" as="geometry" />
        </mxCell>
        <mxCell id="6l5HC6_5bmackoMxipXx-4" value="Despliega el SM Plataforma&amp;nbsp; compartiendo la información de la cuenta del ECTSToken" style="ellipse;whiteSpace=wrap;html=1;fillColor=#b1ddf0;strokeColor=#10739e;" parent="1" vertex="1">
          <mxGeometry x="419" y="120" width="240" height="70" as="geometry" />
        </mxCell>
        <mxCell id="6l5HC6_5bmackoMxipXx-7" value="Compra ECTS al Ministerio" style="ellipse;whiteSpace=wrap;html=1;fillColor=#b1ddf0;strokeColor=#10739e;" parent="1" vertex="1">
          <mxGeometry x="253" y="795" width="140" height="70" as="geometry" />
        </mxCell>
        <mxCell id="6l5HC6_5bmackoMxipXx-9" value="Publica nuevas asignaturas dentro de su catálogo" style="ellipse;whiteSpace=wrap;html=1;fillColor=#b1ddf0;strokeColor=#10739e;" parent="1" vertex="1">
          <mxGeometry x="270" y="240" width="180" height="70" as="geometry" />
        </mxCell>
        <mxCell id="6l5HC6_5bmackoMxipXx-51" style="edgeStyle=orthogonalEdgeStyle;curved=1;rounded=0;orthogonalLoop=1;jettySize=auto;html=1;entryX=0.5;entryY=1;entryDx=0;entryDy=0;" parent="1" source="6l5HC6_5bmackoMxipXx-10" target="6l5HC6_5bmackoMxipXx-11" edge="1">
          <mxGeometry relative="1" as="geometry" />
        </mxCell>
        <mxCell id="6l5HC6_5bmackoMxipXx-55" style="edgeStyle=orthogonalEdgeStyle;curved=1;rounded=0;orthogonalLoop=1;jettySize=auto;html=1;entryX=0;entryY=0.5;entryDx=0;entryDy=0;" parent="1" source="6l5HC6_5bmackoMxipXx-10" target="6l5HC6_5bmackoMxipXx-13" edge="1">
          <mxGeometry relative="1" as="geometry" />
        </mxCell>
        <mxCell id="6l5HC6_5bmackoMxipXx-57" style="edgeStyle=orthogonalEdgeStyle;curved=1;rounded=0;orthogonalLoop=1;jettySize=auto;html=1;" parent="1" source="6l5HC6_5bmackoMxipXx-10" target="6l5HC6_5bmackoMxipXx-49" edge="1">
          <mxGeometry relative="1" as="geometry" />
        </mxCell>
        <mxCell id="Hlv7aWzD6MhGdIuVfXRH-8" style="edgeStyle=orthogonalEdgeStyle;curved=1;rounded=0;orthogonalLoop=1;jettySize=auto;html=1;entryX=0.5;entryY=1;entryDx=0;entryDy=0;" parent="1" source="6l5HC6_5bmackoMxipXx-10" target="6l5HC6_5bmackoMxipXx-29" edge="1">
          <mxGeometry relative="1" as="geometry" />
        </mxCell>
        <mxCell id="KfMiRzdgIznkX_YZ_lzL-11" style="edgeStyle=orthogonalEdgeStyle;curved=1;rounded=0;orthogonalLoop=1;jettySize=auto;html=1;" edge="1" parent="1" source="6l5HC6_5bmackoMxipXx-10" target="KfMiRzdgIznkX_YZ_lzL-9">
          <mxGeometry relative="1" as="geometry" />
        </mxCell>
        <mxCell id="KfMiRzdgIznkX_YZ_lzL-12" style="edgeStyle=orthogonalEdgeStyle;curved=1;rounded=0;orthogonalLoop=1;jettySize=auto;html=1;" edge="1" parent="1" source="6l5HC6_5bmackoMxipXx-10" target="KfMiRzdgIznkX_YZ_lzL-10">
          <mxGeometry relative="1" as="geometry" />
        </mxCell>
        <mxCell id="KfMiRzdgIznkX_YZ_lzL-14" style="edgeStyle=orthogonalEdgeStyle;curved=1;rounded=0;orthogonalLoop=1;jettySize=auto;html=1;entryX=0.5;entryY=1;entryDx=0;entryDy=0;" edge="1" parent="1" source="6l5HC6_5bmackoMxipXx-10" target="6l5HC6_5bmackoMxipXx-14">
          <mxGeometry relative="1" as="geometry" />
        </mxCell>
        <mxCell id="6l5HC6_5bmackoMxipXx-10" value="Universidad" style="shape=umlActor;verticalLabelPosition=bottom;labelBackgroundColor=#ffffff;verticalAlign=top;html=1;" parent="1" vertex="1">
          <mxGeometry x="90" y="412" width="30" height="60" as="geometry" />
        </mxCell>
        <mxCell id="6l5HC6_5bmackoMxipXx-11" value="Se registra en la plataforma" style="ellipse;whiteSpace=wrap;html=1;fillColor=#b1ddf0;strokeColor=#10739e;" parent="1" vertex="1">
          <mxGeometry x="100" y="240" width="140" height="70" as="geometry" />
        </mxCell>
        <mxCell id="6l5HC6_5bmackoMxipXx-13" value="Pone notas a las asignaturas del alumno. Si el alumno saca matrícula de honor devuelve los ECTS" style="ellipse;whiteSpace=wrap;html=1;" parent="1" vertex="1">
          <mxGeometry x="476" y="610" width="210" height="110" as="geometry" />
        </mxCell>
        <mxCell id="6l5HC6_5bmackoMxipXx-14" value="Obstenta un deposito de ECTS de los alumnos que puede consultar" style="ellipse;whiteSpace=wrap;html=1;fillColor=#b1ddf0;strokeColor=#10739e;" parent="1" vertex="1">
          <mxGeometry x="625" y="320" width="155" height="70" as="geometry" />
        </mxCell>
        <mxCell id="6l5HC6_5bmackoMxipXx-22" style="edgeStyle=orthogonalEdgeStyle;curved=1;rounded=0;orthogonalLoop=1;jettySize=auto;html=1;exitX=0.5;exitY=0.5;exitDx=0;exitDy=0;exitPerimeter=0;entryX=0;entryY=0.5;entryDx=0;entryDy=0;" parent="1" source="6l5HC6_5bmackoMxipXx-1" target="6l5HC6_5bmackoMxipXx-4" edge="1">
          <mxGeometry relative="1" as="geometry">
            <mxPoint x="134" y="160" as="sourcePoint" />
            <mxPoint x="529" y="79.98000000000002" as="targetPoint" />
          </mxGeometry>
        </mxCell>
        <mxCell id="6l5HC6_5bmackoMxipXx-29" value="Consulta la lista de alumnos que tiene matriculados en una asignatura" style="ellipse;whiteSpace=wrap;html=1;fillColor=#b1ddf0;strokeColor=#10739e;" parent="1" vertex="1">
          <mxGeometry x="496" y="250" width="170" height="70" as="geometry" />
        </mxCell>
        <mxCell id="6l5HC6_5bmackoMxipXx-32" value="Transfiere ECTSToken en deposito a una universidad registrada" style="ellipse;whiteSpace=wrap;html=1;fillColor=#b1ddf0;strokeColor=#10739e;" parent="1" vertex="1">
          <mxGeometry x="419" y="785" width="170" height="80" as="geometry" />
        </mxCell>
        <mxCell id="6l5HC6_5bmackoMxipXx-33" value="Obtiene la lista de asignaturas que imparte una universidad" style="ellipse;whiteSpace=wrap;html=1;fillColor=#b1ddf0;strokeColor=#10739e;" parent="1" vertex="1">
          <mxGeometry x="599" y="805" width="140" height="70" as="geometry" />
        </mxCell>
        <mxCell id="6l5HC6_5bmackoMxipXx-35" value="Solicita el título transfiriendo las asignaturas aprobadas" style="ellipse;whiteSpace=wrap;html=1;" parent="1" vertex="1">
          <mxGeometry x="219" y="1075" width="166" height="70" as="geometry" />
        </mxCell>
        <mxCell id="6l5HC6_5bmackoMxipXx-36" value="Acepta el título emitido por la universidad" style="ellipse;whiteSpace=wrap;html=1;" parent="1" vertex="1">
          <mxGeometry x="69" y="1065" width="140" height="70" as="geometry" />
        </mxCell>
        <mxCell id="6l5HC6_5bmackoMxipXx-43" style="edgeStyle=orthogonalEdgeStyle;curved=1;rounded=0;orthogonalLoop=1;jettySize=auto;html=1;" parent="1" source="6l5HC6_5bmackoMxipXx-37" target="6l5HC6_5bmackoMxipXx-32" edge="1">
          <mxGeometry relative="1" as="geometry" />
        </mxCell>
        <mxCell id="6l5HC6_5bmackoMxipXx-45" style="edgeStyle=orthogonalEdgeStyle;curved=1;rounded=0;orthogonalLoop=1;jettySize=auto;html=1;" parent="1" source="6l5HC6_5bmackoMxipXx-37" target="6l5HC6_5bmackoMxipXx-35" edge="1">
          <mxGeometry relative="1" as="geometry" />
        </mxCell>
        <mxCell id="6l5HC6_5bmackoMxipXx-46" style="edgeStyle=orthogonalEdgeStyle;curved=1;rounded=0;orthogonalLoop=1;jettySize=auto;html=1;" parent="1" source="6l5HC6_5bmackoMxipXx-37" target="6l5HC6_5bmackoMxipXx-36" edge="1">
          <mxGeometry relative="1" as="geometry" />
        </mxCell>
        <mxCell id="6l5HC6_5bmackoMxipXx-48" style="edgeStyle=orthogonalEdgeStyle;curved=1;rounded=0;orthogonalLoop=1;jettySize=auto;html=1;" parent="1" source="6l5HC6_5bmackoMxipXx-37" target="6l5HC6_5bmackoMxipXx-47" edge="1">
          <mxGeometry relative="1" as="geometry" />
        </mxCell>
        <mxCell id="Hlv7aWzD6MhGdIuVfXRH-4" style="edgeStyle=orthogonalEdgeStyle;curved=1;rounded=0;orthogonalLoop=1;jettySize=auto;html=1;" parent="1" source="6l5HC6_5bmackoMxipXx-37" target="6l5HC6_5bmackoMxipXx-33" edge="1">
          <mxGeometry relative="1" as="geometry" />
        </mxCell>
        <mxCell id="Hlv7aWzD6MhGdIuVfXRH-6" style="edgeStyle=orthogonalEdgeStyle;curved=1;rounded=0;orthogonalLoop=1;jettySize=auto;html=1;" parent="1" source="6l5HC6_5bmackoMxipXx-37" target="6l5HC6_5bmackoMxipXx-7" edge="1">
          <mxGeometry relative="1" as="geometry" />
        </mxCell>
        <mxCell id="KfMiRzdgIznkX_YZ_lzL-18" style="edgeStyle=orthogonalEdgeStyle;curved=1;rounded=0;orthogonalLoop=1;jettySize=auto;html=1;entryX=0;entryY=0.5;entryDx=0;entryDy=0;" edge="1" parent="1" source="6l5HC6_5bmackoMxipXx-37" target="Hlv7aWzD6MhGdIuVfXRH-2">
          <mxGeometry relative="1" as="geometry" />
        </mxCell>
        <mxCell id="KfMiRzdgIznkX_YZ_lzL-19" style="edgeStyle=orthogonalEdgeStyle;curved=1;rounded=0;orthogonalLoop=1;jettySize=auto;html=1;entryX=0.5;entryY=0;entryDx=0;entryDy=0;" edge="1" parent="1" source="6l5HC6_5bmackoMxipXx-37" target="KfMiRzdgIznkX_YZ_lzL-15">
          <mxGeometry relative="1" as="geometry" />
        </mxCell>
        <mxCell id="KfMiRzdgIznkX_YZ_lzL-20" style="edgeStyle=orthogonalEdgeStyle;curved=1;rounded=0;orthogonalLoop=1;jettySize=auto;html=1;entryX=0.5;entryY=0;entryDx=0;entryDy=0;" edge="1" parent="1" source="6l5HC6_5bmackoMxipXx-37" target="KfMiRzdgIznkX_YZ_lzL-16">
          <mxGeometry relative="1" as="geometry" />
        </mxCell>
        <mxCell id="6l5HC6_5bmackoMxipXx-37" value="Estudiante" style="shape=umlActor;verticalLabelPosition=bottom;labelBackgroundColor=#ffffff;verticalAlign=top;html=1;" parent="1" vertex="1">
          <mxGeometry x="89" y="915" width="30" height="60" as="geometry" />
        </mxCell>
        <mxCell id="6l5HC6_5bmackoMxipXx-47" value="Se registra en la plataforma" style="ellipse;whiteSpace=wrap;html=1;fillColor=#b1ddf0;strokeColor=#10739e;" parent="1" vertex="1">
          <mxGeometry x="79" y="795" width="140" height="70" as="geometry" />
        </mxCell>
        <mxCell id="6l5HC6_5bmackoMxipXx-49" value="Publica un claim con el título del alumno tras comprobar las asignaturas aprobadas" style="ellipse;whiteSpace=wrap;html=1;" parent="1" vertex="1">
          <mxGeometry x="40" y="580" width="250" height="70" as="geometry" />
        </mxCell>
        <mxCell id="Hlv7aWzD6MhGdIuVfXRH-2" value="Se matricula en asignaturas intercambiando el crédito de su depósito por matriculas" style="ellipse;whiteSpace=wrap;html=1;fillColor=#b1ddf0;strokeColor=#10739e;" parent="1" vertex="1">
          <mxGeometry x="579" y="915" width="210" height="70" as="geometry" />
        </mxCell>
        <mxCell id="KfMiRzdgIznkX_YZ_lzL-1" value="Despliega el ECTSToken" style="ellipse;whiteSpace=wrap;html=1;fillColor=#b1ddf0;strokeColor=#10739e;" vertex="1" parent="1">
          <mxGeometry x="459" y="20" width="140" height="70" as="geometry" />
        </mxCell>
        <mxCell id="KfMiRzdgIznkX_YZ_lzL-9" value="Aprueba las asignaturas a los alumnos." style="ellipse;whiteSpace=wrap;html=1;fillColor=#b1ddf0;strokeColor=#10739e;" vertex="1" parent="1">
          <mxGeometry x="620" y="490" width="155" height="70" as="geometry" />
        </mxCell>
        <mxCell id="KfMiRzdgIznkX_YZ_lzL-10" value="Puede reclamar la recompra de los ECTSToken por ether a la plataforma" style="ellipse;whiteSpace=wrap;html=1;fillColor=#b1ddf0;strokeColor=#10739e;" vertex="1" parent="1">
          <mxGeometry x="380" y="520" width="210" height="85" as="geometry" />
        </mxCell>
        <mxCell id="KfMiRzdgIznkX_YZ_lzL-15" value="Comprueba el estado de sus depósitos" style="ellipse;whiteSpace=wrap;html=1;fillColor=#b1ddf0;strokeColor=#10739e;" vertex="1" parent="1">
          <mxGeometry x="569" y="1015" width="140" height="70" as="geometry" />
        </mxCell>
        <mxCell id="KfMiRzdgIznkX_YZ_lzL-16" value="Comprueba la lista de asignaturas donde está matriculado y si está aprobado" style="ellipse;whiteSpace=wrap;html=1;fillColor=#b1ddf0;strokeColor=#10739e;" vertex="1" parent="1">
          <mxGeometry x="404" y="1045" width="160" height="90" as="geometry" />
        </mxCell>
      </root>
    </mxGraphModel>
  </diagram>
</mxfile>
